#!OML:ASF F:\VICON\USERDATA\INSTALL\rory3\rory3.ASF
:FULLY-SPECIFIED
:DEGREES
212
root 1.2596022057872687 17.849836179619906 49.21773412925825 -3.823034632611115 0.4471860384535058 -0.808443342904142
lfemur 3.6964746670090616 -2.3718486765309024 -20.10885292630176
ltibia 54.3657564527749
lfoot -15.683500748475169 -4.04349002295543
ltoes -9.12390609535412
rfemur -15.210498349519533 1.1992753603478539 24.332020601470386
rtibia 23.75766642495922
rfoot 0.9525338277741415 -9.14345844776049
rtoes 8.776750735685727
lowerback 10.538909738024795 -1.099619111088966 -1.0214864443821972
upperback -0.02843865831921273 -1.5400871361757902 2.0999230423479167
thorax -6.042316350853063 -0.747366998092659 3.2703110696857802
lowerneck -16.943521052165 -3.324199658549198 -1.4869074764582804
upperneck 21.317776440585014 -4.508802599977545 1.036680031901399
head 9.589964706124416 -2.124835842089032 0.0030100296881120925
lclavicle -2.7003079518323037e-15 -2.1517147062589226e-15
lhumerus -30.706163374643946 2.654735913280451 82.08559096607944
lradius 23.5905588459916
lwrist 10.516958643740967
lhand -29.947724721933202 19.9878813698229
lfingers 7.125020000000001
lthumb -3.1081127494766476 50.77542346324835
rclavicle -2.7003079517664164e-15 -2.1517147062134495e-15
rhumerus -32.757538952029904 -21.494538949711384 -77.23685845330857
rradius 25.79684432785519
rwrist 6.769365082006211
rhand -18.06259238093868 21.445684633892927
rfingers 7.125020000000001
rthumb 8.372211012345804 -7.958589703937911
213
root 1.2365384043924705 17.855226045380938 49.380771724778185 -3.7084488349096314 0.24158117339766672 -0.8454858832532559
lfemur 3.9540665763298968 -2.3355236317148904 -20.111332050318474
ltibia 54.059552363460696
lfoot -15.900641698567703 -4.126500198821505
ltoes -7.396317447410571
rfemur -15.514121847497368 1.2772716771076755 24.34062272847321
rtibia 23.234299716195064
rfoot 0.9949280993788054 -9.222654460147043
rtoes 9.175193715103243
lowerback 10.548721289158687 -1.1285555312153253 -1.134878638096363
upperback -0.047235652381812016 -1.5459401752154263 2.1167403048415063
thorax -6.108139749656576 -0.7459473689859941 3.2361946403345154
lowerneck -16.928566048410595 -3.3211360033057793 -1.4687192088630172
upperneck 21.244638559560475 -4.495056376173725 1.058244178740988
head 9.550520244411384 -2.1198230126656297 0.016806992733241682
lclavicle -2.700307951832161e-15 -2.151714706259006e-15
lhumerus -30.81871338329923 2.409525310232012 82.0592158877089
lradius 23.76722744011187
lwrist 10.36785584844269
lhand -29.92113032903549 20.034511210974504
lfingers 7.125020000000001
lthumb -3.083073373945098 50.75118977913933
rclavicle -2.700307951778584e-15 -2.1517147062219423e-15
rhumerus -32.55340744118129 -21.384948762087134 -77.30676679027124
rradius 25.809779210328035
rwrist 6.456068443706255
rhand -18.01239148088989 21.47280611495697
rfingers 7.125020000000001
rthumb 8.409628671963258 -8.002286793341302
214
root 1.2503540130734048 17.85838695313705 49.21688993922787 -3.704824071694352 0.1693129252842014 -0.8294142478691544
lfemur 4.1227654279072645 -2.325542073931065 -20.212735808596655
ltibia 53.6466314273568
lfoot -15.903139745866827 -4.172554242984424
ltoes -9.583276616152755
rfemur -15.726751251845723 1.332973134094965 24.360510729546935
rtibia 22.65715884666406
rfoot 1.1224975749670243 -9.17158894924485
rtoes 9.646834265262
lowerback 10.508830668292651 -1.1891473079883128 -1.1299268481623401
upperback -0.05708742099551937 -1.6609560492470752 2.1174636862541414
thorax -6.0674458617115805 -0.8059398804284801 3.40161443261882
lowerneck -16.959844373067774 -3.3228608589772235 -1.4558556966591079
upperneck 21.26800052390538 -4.501739151467121 1.0564782536140793
head 9.56874477122338 -2.1213503515579606 0.01085364255786847
lclavicle -2.7003079518370057e-15 -2.151714706262475e-15
lhumerus -30.726180198635483 2.370468148954182 82.10267168177205
lradius 24.02639097637294
lwrist 10.280382808379365
lhand -29.86516887193211 19.858031071728966
lfingers 7.125020000000001
lthumb -3.0230120147008592 50.567717903540185
rclavicle -2.700307951767457e-15 -2.1517147062145693e-15
rhumerus -32.537970557350874 -21.27864193463735 -77.23710943159767
rradius 25.88091360534908
rwrist 5.639668925710392
rhand -18.02629480137753 21.44316106719137
rfingers 7.125020000000001
rthumb 8.435980321201566 -8.046211481142663
215
root 1.2349596246997558 17.855765853679998 49.177597937592964 -3.778310167329497 -0.08049297838158903 -0.6325995965962439
lfemur 4.617653616239158 -2.301360915683695 -20.448280595779035
ltibia 53.03783449316301
lfoot -16.136765250896328 -4.360777240402063
ltoes -9.42840531757175
rfemur -16.052277988663242 1.431321976756636 24.253604866731425
rtibia 22.53282612232222
rfoot 1.2135580295764488 -9.081603204190664
rtoes 10.344456083008602
lowerback 10.498186579386177 -1.1831436842387137 -1.3138875283013665
upperback -0.0662736774588723 -1.6798999572713 2.09732693510619
thorax -6.082233400440018 -0.8124977372076085 3.389682324214785
lowerneck -16.99227479347216 -3.3235961796489915 -1.4419898285858044
upperneck 21.256940693392824 -4.500296617840441 1.0884387102910413
head 9.576470369081548 -2.1174854221363897 0.023777857588091866
lclavicle -2.70030795183355e-15 -2.1517147062602995e-15
lhumerus -30.654765063151267 2.21349853006935 82.05460705434679
lradius 24.272644883902988
lwrist 10.378663471623645
lhand -29.90408332583505 19.434758672017544
lfingers 7.125020000000001
lthumb -3.083134568780201 50.081667131784954
rclavicle -2.700307951777575e-15 -2.151714706221621e-15
rhumerus -32.54475387379525 -21.17242667559277 -77.03589012574284
rradius 25.960536895245223
rwrist 5.149174127342629
rhand -17.99574161165688 21.50617883410569
rfingers 7.125020000000001
rthumb 8.471347083973383 -8.006568736553847
